<svg width="12" height="12" viewBox="0 0 12 12" fill="none" xmlns="http://www.w3.org/2000/svg">
<g id="Group 71">
<path id="Vector" d="M4.5625 4.56247C4.56255 4.29894 4.63504 4.0405 4.77205 3.81539C4.90906 3.59027 5.1053 3.40716 5.33937 3.28604C5.5734 3.16493 5.83627 3.11049 6.09914 3.12867C6.36206 3.14684 6.61491 3.23694 6.83006 3.38911C7.04521 3.54128 7.2144 3.74966 7.3191 3.99149C7.42384 4.23332 7.46007 4.49928 7.42384 4.7603C7.38762 5.02133 7.28038 5.2674 7.11378 5.47157C6.94717 5.67575 6.72761 5.83018 6.47917 5.91801C6.33896 5.96761 6.21759 6.05941 6.13177 6.18084C6.04595 6.3023 5.9999 6.44735 6 6.59603V7.07808" stroke="#4D80E5" stroke-linecap="round" stroke-linejoin="round"/>
<path id="Vector_2" d="M6 8.875C5.90076 8.875 5.82031 8.79455 5.82031 8.69531C5.82031 8.59608 5.90076 8.51562 6 8.51562" stroke="#4D80E5"/>
<path id="Vector_3" d="M6 8.875C6.09924 8.875 6.17969 8.79455 6.17969 8.69531C6.17969 8.59608 6.09924 8.51562 6 8.51562" stroke="#4D80E5"/>
<path id="Vector_4" d="M6 11.3906C8.97716 11.3906 11.3906 8.97716 11.3906 6C11.3906 3.02284 8.97716 0.609375 6 0.609375C3.02284 0.609375 0.609375 3.02284 0.609375 6C0.609375 8.97716 3.02284 11.3906 6 11.3906Z" stroke="#4D80E5" stroke-miterlimit="10"/>
</g>
</svg>
