<svg width="24" height="24" viewBox="0 0 24 24" fill="none" xmlns="http://www.w3.org/2000/svg">
<g id="Icon_mini hearts" clip-path="url(#clip0_868_3825)">
<path id="Vector" d="M3.26365 -1.32318C5.99762 -3.14996 9.21189 -4.125 12.5 -4.125C16.9092 -4.125 21.1379 -2.37344 24.2556 0.744348C27.3734 3.86214 29.125 8.09077 29.125 12.5C29.125 15.7881 28.15 19.0024 26.3232 21.7363C24.4964 24.4703 21.8999 26.6012 18.8621 27.8595C15.8243 29.1178 12.4816 29.447 9.25663 28.8055C6.0317 28.1641 3.0694 26.5807 0.744357 24.2556C-1.58069 21.9306 -3.16407 18.9683 -3.80555 15.7434C-4.44703 12.5184 -4.1178 9.17571 -2.85949 6.13789C-1.60118 3.10007 0.529684 0.503595 3.26365 -1.32318ZM3.68033 25.6996C6.29096 27.4439 9.36023 28.375 12.5 28.375C16.7103 28.375 20.7482 26.7025 23.7253 23.7253C26.7025 20.7482 28.375 16.7103 28.375 12.5C28.375 9.36022 27.4439 6.29095 25.6996 3.68032C23.9552 1.06969 21.4759 -0.965047 18.5751 -2.16659C15.6743 -3.36813 12.4824 -3.68251 9.40295 -3.06997C6.3235 -2.45743 3.49484 -0.94548 1.27469 1.27468C-0.945472 3.49484 -2.45742 6.32349 -3.06996 9.40294C-3.6825 12.4824 -3.36812 15.6743 -2.16658 18.5751C-0.96504 21.4759 1.0697 23.9552 3.68033 25.6996Z" fill="#EB9600" stroke="#EB9600" stroke-width="1.75"/>
<circle id="Ellipse 1" cx="18.25" cy="19.25" r="17.5" fill="#EB9600"/>
<path id="Icon" d="M21.2078 6.79219C20.7191 6.30327 20.1389 5.91542 19.5003 5.65081C18.8617 5.3862 18.1772 5.25 17.4859 5.25C16.7946 5.25 16.1101 5.3862 15.4715 5.65081C14.8329 5.91542 14.2526 6.30327 13.7639 6.79219L12.7497 7.80639L11.7355 6.79219C10.7484 5.80507 9.4096 5.25051 8.01361 5.25051C6.61761 5.25051 5.27879 5.80507 4.29168 6.79219C3.30456 7.77931 2.75 9.11812 2.75 10.5141C2.75 11.9101 3.30456 13.2489 4.29168 14.2361L5.30588 15.2503L12.7497 22.6941L20.1936 15.2503L21.2078 14.2361C21.6967 13.7474 22.0846 13.1671 22.3492 12.5285C22.6138 11.8899 22.75 11.2054 22.75 10.5141C22.75 9.82285 22.6138 9.13835 22.3492 8.49973C22.0846 7.8611 21.6967 7.28088 21.2078 6.79219Z" fill="#EB9600" stroke="#943900" stroke-width="2" stroke-linecap="round" stroke-linejoin="round"/>
</g>
<defs>
<clipPath id="clip0_868_3825">
<rect width="24" height="24" fill="white"/>
</clipPath>
</defs>
</svg>
