<svg width="32" height="32" viewBox="0 0 32 32" fill="none" xmlns="http://www.w3.org/2000/svg">
<g id="Icon_hearts" clip-path="url(#clip0_465_44037)">
<path id="Vector" d="M4.81915 -0.733327C8.12869 -2.94469 12.0197 -4.125 16 -4.125C21.3375 -4.125 26.4564 -2.00469 30.2305 1.76947C34.0047 5.54364 36.125 10.6625 36.125 16C36.125 19.9803 34.9447 23.8713 32.7333 27.1808C30.522 30.4904 27.3789 33.0698 23.7015 34.5931C20.0241 36.1163 15.9777 36.5148 12.0738 35.7383C8.16995 34.9618 4.58401 33.045 1.76948 30.2305C-1.04505 27.416 -2.96177 23.8301 -3.73829 19.9262C-4.51482 16.0223 -4.11628 11.9759 -2.59307 8.29849C-1.06985 4.62113 1.50962 1.47804 4.81915 -0.733327ZM5.51362 31.694C8.61759 33.768 12.2669 34.875 16 34.875C21.006 34.875 25.8069 32.8864 29.3466 29.3466C32.8864 25.8069 34.875 21.006 34.875 16C34.875 12.2669 33.768 8.61759 31.694 5.51361C29.62 2.40963 26.6721 -0.00962353 23.2232 -1.43823C19.7742 -2.86683 15.9791 -3.24062 12.3177 -2.51232C8.65629 -1.78403 5.29308 0.0136414 2.65337 2.65336C0.0136509 5.29307 -1.78402 8.65627 -2.51231 12.3177C-3.24061 15.9791 -2.86682 19.7742 -1.43822 23.2231C-0.00961447 26.6721 2.40964 29.62 5.51362 31.694Z" fill="white" stroke="white" stroke-width="1.75"/>
<circle id="Ellipse 1" cx="21" cy="21" r="19.25" fill="white"/>
<path id="Icon" d="M26.3608 9.13918C25.7622 8.54025 25.0514 8.06514 24.2691 7.74099C23.4868 7.41684 22.6483 7.25 21.8015 7.25C20.9546 7.25 20.1161 7.41684 19.3338 7.74099C18.5515 8.06514 17.8407 8.54025 17.2421 9.13918L15.9997 10.3816L14.7573 9.13918C13.5481 7.92996 11.908 7.25063 10.1979 7.25063C8.48782 7.25063 6.84777 7.92996 5.63855 9.13918C4.42933 10.3484 3.75 11.9885 3.75 13.6985C3.75 15.4086 4.42933 17.0487 5.63855 18.2579L6.88095 19.5003L15.9997 28.619L25.1184 19.5003L26.3608 18.2579C26.9597 17.6593 27.4349 16.9485 27.759 16.1662C28.0832 15.3839 28.25 14.5454 28.25 13.6985C28.25 12.8517 28.0832 12.0132 27.759 11.2309C27.4349 10.4486 26.9597 9.73782 26.3608 9.13918Z" fill="white" stroke="#666666" stroke-linecap="round" stroke-linejoin="round"/>
</g>
<defs>
<clipPath id="clip0_465_44037">
<rect width="32" height="32" fill="white"/>
</clipPath>
</defs>
</svg>
