<svg width="99" height="98" viewBox="0 0 99 98" fill="none" xmlns="http://www.w3.org/2000/svg">
<g id="Icon/Seller">
<path id="Icon" d="M49.5001 89.8332C72.0517 89.8332 90.3335 71.5515 90.3335 48.9998C90.3335 26.4482 72.0517 8.1665 49.5001 8.1665C26.9485 8.1665 8.66678 26.4482 8.66678 48.9998C8.66678 71.5515 26.9485 89.8332 49.5001 89.8332Z" stroke="#222222" stroke-width="2.45" stroke-linecap="round" stroke-linejoin="round"/>
<path id="Icon_2" d="M77.0639 76.5612C73.7966 73.2939 69.3652 71.4583 64.7446 71.4583H34.2557C29.635 71.4583 25.2036 73.2939 21.9363 76.5612M66.9224 41.9222C66.9224 51.5443 59.1222 59.3444 49.5001 59.3444C39.8781 59.3444 32.0779 51.5443 32.0779 41.9222C32.0779 32.3002 39.8781 24.5 49.5001 24.5C59.1222 24.5 66.9224 32.3002 66.9224 41.9222Z" stroke="#222222" stroke-width="2.45" stroke-linecap="round" stroke-linejoin="round"/>
</g>
</svg>
